<svg xmlns="http://www.w3.org/2000/svg" version="1.1" xmlns:xlink="http://www.w3.org/1999/xlink" xmlns:svgjs="http://svgjs.com/svgjs" width="45" height="45" x="0" y="0" viewBox="0 0 128 128" style="enable-background:new 0 0 512 512" xml:space="preserve" class=""><g><path d="M64 1C29.3 1 1 29.3 1 64s28.3 63 63 63 63-28.3 63-63S98.7 1 64 1zm33 62.3C97 80.6 82.9 96.1 65.6 97c-19.4.9-35.4-15.1-34.6-34.5.7-16.4 13.7-29.9 30-31.4 9.7-.8 18.9 2.5 25.8 9.1 1.1 1 1.4 2.7.5 3.9-1.1 1.6-3.3 1.8-4.6.5-5.6-5.4-13.1-8.1-20.9-7.6-13.4 1-24.2 12-24.9 25.5C36.2 78.1 48.6 91 64 91c13.9 0 25.3-10.5 26.8-24H64.1c-1.5 0-2.8-1-3.1-2.4-.3-1.9 1.1-3.6 3-3.6h30.7c1.3 0 2.3 1 2.3 2.3z" fill="#000000" data-original="#000000" class=""></path></g></svg>