<svg width="64" height="17" viewBox="0 0 64 17" fill="none" xmlns="http://www.w3.org/2000/svg">
<path d="M44.8926 5.17452L44.6603 6.62652H49.5679L55.9115 0H20.1445L13.8008 6.62652H27.7648L28.1442 5.48942H29.7101L29.9671 6.62652H32.5414L33.1235 5.48942H35.1095L35.112 6.62652H42.8065L43.0401 5.17452H44.8926Z" fill="#00B4CD"/>
<path d="M35.1208 13.5619H33.089L33.0767 9.24384L30.8311 13.5974H29.7707L28.7536 9.04533L27.3435 13.5619H25.4563L28.1443 5.49191H29.7102L30.7532 10.115L33.1236 5.49191H35.1097L35.1208 13.5619Z" fill="white"/>
<path d="M41.6967 13.5618H43.5542L43.9571 11.0879L45.796 13.5618H48.2949L45.9604 10.61L48.2208 8.24758H45.7416L44.0831 10.2485L44.8926 5.17816H43.0401L41.6967 13.5618Z" fill="white"/>
<path d="M1.21979 5.48329H4.27732C5.93213 5.54824 6.94678 6.70371 6.67365 8.45469C6.38199 10.2522 5.2796 11.0401 3.53333 11.0401H2.40375L1.99962 13.5655H0L1.21732 5.47839L1.21979 5.48329ZM2.6571 9.43494H2.99573C3.71871 9.43494 4.43056 9.43494 4.5801 8.5037C4.73211 7.54673 4.13766 7.03945 3.36278 7.03945H3.02786L2.6571 9.43494Z" fill="white"/>
<path d="M8.05278 13.5618H6.19899L7.47069 5.4747H9.32695L8.05278 13.5618Z" fill="white"/>
<path d="M63.9075 5.52501C63.9063 5.7503 63.8377 5.97016 63.7103 6.15676C63.583 6.34335 63.4027 6.48828 63.1922 6.5732C62.9817 6.65812 62.7506 6.67921 62.528 6.6338C62.3054 6.58839 62.1015 6.47852 61.9419 6.3181C61.7824 6.15768 61.6744 5.95393 61.6318 5.73265C61.5891 5.51136 61.6136 5.2825 61.7022 5.07504C61.7908 4.86757 61.9395 4.69084 62.1294 4.56721C62.3194 4.44359 62.5421 4.37863 62.7693 4.38057C63.0729 4.38412 63.3627 4.50634 63.5759 4.72065C63.789 4.93496 63.9082 5.22403 63.9075 5.52501ZM61.8387 5.52501C61.8445 5.70345 61.9031 5.87625 62.0072 6.02192C62.1113 6.16759 62.2563 6.27969 62.4242 6.3443C62.5921 6.4089 62.7754 6.42314 62.9513 6.38526C63.1273 6.34737 63.2881 6.25903 63.4139 6.13122C63.5396 6.0034 63.6246 5.84177 63.6584 5.66641C63.6922 5.49105 63.6732 5.30972 63.6039 5.14496C63.5345 4.9802 63.4179 4.8393 63.2684 4.73977C63.1189 4.64024 62.9432 4.58649 62.7631 4.58519C62.5146 4.58874 62.2776 4.68998 62.1042 4.86666C61.9309 5.04334 61.8354 5.28101 61.8387 5.52746V5.52501ZM63.3514 6.18301H62.9633L62.5926 5.67328V6.18301H62.2824V4.87314H62.7038C63.0264 4.87314 63.2093 5.01773 63.2093 5.27505C63.2112 5.36053 63.183 5.444 63.1295 5.5111C63.0761 5.57819 63.0007 5.62471 62.9164 5.64264L63.3514 6.18301ZM62.6457 5.45394C62.8014 5.45394 62.8855 5.39513 62.8855 5.27872C62.8855 5.16232 62.8051 5.10963 62.6494 5.10963H62.5901V5.45149H62.647L62.6457 5.45394Z" fill="white"/>
<path d="M0 15.5394L0.00247172 17H23.5827L24.9817 15.5394H0Z" fill="#FFD911"/>
<path d="M25.46 15.5394L24.0611 17H62.2788L62.2751 15.5394H25.46Z" fill="#D41426"/>
<path d="M14.6054 13.5619H12.654L12.7517 12.9847C12.1424 13.5263 11.7061 13.7199 10.9671 13.7199C9.62246 13.7199 8.77713 12.7397 8.81791 11.2044C8.86611 9.435 10.0921 8.13004 11.6999 8.13004C12.4501 8.13004 12.8394 8.30771 13.419 8.88606L13.5204 8.28443H15.4001L14.6054 13.5619ZM10.8212 11.0671C10.8027 11.7508 11.2093 12.1785 11.8643 12.1785C12.5786 12.1785 13.1199 11.5769 13.141 10.7498C13.1583 10.0881 12.7702 9.66168 12.1214 9.66168C11.407 9.66168 10.8447 10.2633 10.8212 11.0671Z" fill="white"/>
<path d="M41.2704 13.5617H39.3214L39.424 12.9883C38.8147 13.5299 38.3785 13.7235 37.6394 13.7235C36.2948 13.7235 35.4482 12.7432 35.4903 11.2079C35.5385 9.44713 36.7644 8.13727 38.3723 8.13727C39.1225 8.13727 39.5105 8.31494 40.0914 8.89329L40.215 8.29166H42.0688L41.2704 13.5617ZM37.4887 11.067C37.4701 11.7507 37.8779 12.1784 38.5317 12.1784C39.246 12.1784 39.7874 11.5767 39.8084 10.7496C39.8257 10.088 39.4314 9.66156 38.7888 9.66156C38.0744 9.66156 37.5097 10.2632 37.4887 11.067Z" fill="white"/>
<path d="M19.7416 10.1333C19.3708 9.77799 19.0866 9.65913 18.6441 9.65913C17.9409 9.65913 17.3885 10.2608 17.3675 11.0401C17.3502 11.725 17.7654 12.1747 18.4106 12.1747C18.8023 12.1747 19.0569 12.0804 19.4932 11.7753L19.246 13.4282C18.5737 13.6512 18.287 13.7125 17.8445 13.7125C16.3442 13.7125 15.3246 12.6256 15.3642 11.0548C15.4087 9.37731 16.6915 8.12626 18.371 8.12626C18.9284 8.12004 19.4793 8.24608 19.9776 8.49385L19.7416 10.1333Z" fill="white"/>
<path d="M21.7623 11.3159C21.7437 12.0241 22.0218 12.3439 22.6533 12.3439C23.0958 12.3439 23.338 12.1785 23.4295 11.8023H25.5823C25.0237 13.1355 24.1265 13.7163 22.599 13.7163C20.8688 13.7163 19.8615 12.747 19.9023 11.1296C19.9505 9.35658 21.2692 8.13004 23.1279 8.13004C24.7963 8.13004 25.8307 9.15808 25.7863 10.7767C25.7863 10.9066 25.7652 11.0855 25.7467 11.3183H21.7623V11.3159ZM23.7792 10.2131C23.7582 9.68251 23.4567 9.39701 22.9302 9.39701C22.4037 9.39701 22.0552 9.67026 21.9205 10.2131H23.7792Z" fill="white"/>
<path d="M49.4815 11.3159C49.4629 12.0241 49.741 12.3439 50.3725 12.3439C50.8125 12.3439 51.0572 12.1785 51.1499 11.8023H53.2929C52.7342 13.1355 51.837 13.7163 50.3132 13.7163C48.583 13.7163 47.5745 12.747 47.6165 11.1296C47.6647 9.35658 48.976 8.13004 50.8421 8.13004C52.5093 8.13004 53.5437 9.15808 53.5017 10.7767C53.5017 10.9066 53.4819 11.0855 53.4634 11.3183H49.4815V11.3159ZM51.4996 10.2131C51.4786 9.68251 51.1771 9.39701 50.6506 9.39701C50.1241 9.39701 49.7744 9.67026 49.6396 10.2131H51.4996Z" fill="white"/>
<path d="M55.9746 9.00116C56.5839 8.45834 57.0177 8.28067 57.7592 8.28067C57.8544 8.28067 57.9854 8.28067 58.1535 8.29292L57.8902 10.1003C57.6222 9.94061 57.3143 9.85868 57.0016 9.86378C56.1922 9.86378 55.8609 10.2314 55.6904 11.3158L55.358 13.563H53.3892L54.1851 8.28067H56.071L55.9746 9.00116Z" fill="white"/>
<path d="M61.9377 9.97893C61.4001 9.62359 61.08 9.51943 60.6524 9.51943C60.2248 9.51943 59.9826 9.62604 59.9776 9.83924C59.9776 9.96177 60.0221 10.0059 60.1741 10.077C60.2433 10.1002 59.9949 10.0292 60.9156 10.2779C61.8784 10.5377 62.306 10.9861 62.2874 11.7544C62.2578 12.9491 61.2703 13.7149 59.7589 13.7149C58.8938 13.7149 58.2276 13.5017 57.3366 12.9123L58.0855 11.627C58.8592 12.1343 59.1891 12.2519 59.7749 12.2519C60.1778 12.2519 60.4559 12.1098 60.4621 11.8843C60.4621 11.7618 60.3966 11.6821 60.2433 11.6233C60.1964 11.611 60.4324 11.6711 59.5327 11.4567C58.544 11.2226 58.1337 10.7497 58.1547 9.92256C58.1844 8.81978 59.1199 8.10297 60.4769 8.10297C61.143 8.10297 61.735 8.26838 62.4543 8.64456L61.9377 9.97893Z" fill="white"/>
</svg>
