<svg xmlns="http://www.w3.org/2000/svg" version="1.1" xmlns:xlink="http://www.w3.org/1999/xlink" xmlns:svgjs="http://svgjs.com/svgjs" width="20" height="20" x="0" y="0" viewBox="0 0 472.616 472.616" style="enable-background:new 0 0 512 512" xml:space="preserve" class=""><g transform="matrix(-0.999999999999998,0,0,-0.999999999999998,472.6180150569405,472.6170349121089)"><path d="M471.293 231.377c-23.427-40.494-57.113-74.458-97.417-98.217-41.529-24.481-89.099-37.421-137.567-37.421s-96.039 12.94-137.568 37.421c-40.304 23.76-73.99 57.723-97.416 98.217a9.85 9.85 0 0 0 0 9.862c23.426 40.495 57.112 74.459 97.416 98.217 41.53 24.482 89.1 37.422 137.568 37.422 48.468 0 96.038-12.94 137.567-37.422 40.304-23.759 73.99-57.722 97.417-98.217a9.85 9.85 0 0 0 0-9.862zm-107.418 91.115c-38.502 22.696-82.613 34.693-127.567 34.693-44.954 0-89.066-11.997-127.567-34.693-35.742-21.07-65.874-50.79-87.443-86.185 21.569-35.394 51.701-65.114 87.443-86.184 38.501-22.696 82.613-34.693 127.567-34.693 44.954 0 89.065 11.997 127.567 34.693 35.741 21.07 65.873 50.789 87.443 86.184-21.57 35.395-51.701 65.115-87.443 86.185z" fill="#bdb8b8" data-original="#000000" class=""></path><path d="M236.308 147.832c-48.786 0-88.475 39.689-88.475 88.475 0 48.786 39.689 88.476 88.475 88.476 48.786 0 88.476-39.69 88.476-88.476 0-48.785-39.691-88.475-88.476-88.475zm0 157.259c-37.927 0-68.783-30.856-68.783-68.784 0-37.927 30.856-68.783 68.783-68.783 37.928 0 68.784 30.856 68.784 68.783 0 37.928-30.856 68.784-68.784 68.784z" fill="#bdb8b8" data-original="#000000" class=""></path></g></svg>