<svg xmlns="http://www.w3.org/2000/svg" width="17.895" height="17.895" viewBox="0 0 17.895 17.895">
  <g id="noun-category-1041139" transform="translate(-103.593 -33.602)">
    <path id="Path_2432" data-name="Path 2432" d="M105.041,33.6a1.456,1.456,0,0,0-1.448,1.451v5.275a1.456,1.456,0,0,0,1.448,1.451h5.26a1.456,1.456,0,0,0,1.448-1.451V35.053A1.456,1.456,0,0,0,110.3,33.6Z" fill="#141414" fill-rule="evenodd"/>
    <path id="Path_2433" data-name="Path 2433" d="M373.285,33.6a1.456,1.456,0,0,0-1.448,1.451v5.275a1.456,1.456,0,0,0,1.448,1.451h5.261a1.455,1.455,0,0,0,1.446-1.451V35.053a1.455,1.455,0,0,0-1.446-1.451Z" transform="translate(-258.503)" fill="#141414" fill-rule="evenodd"/>
    <path id="Path_2434" data-name="Path 2434" d="M105.041,301.18a1.456,1.456,0,0,0-1.448,1.451v5.277a1.456,1.456,0,0,0,1.448,1.451h5.26a1.456,1.456,0,0,0,1.448-1.451v-5.277a1.456,1.456,0,0,0-1.448-1.451Z" transform="translate(0 -257.861)" fill="#141414" fill-rule="evenodd"/>
    <path id="Path_2435" data-name="Path 2435" d="M373.285,301.18a1.456,1.456,0,0,0-1.448,1.451v5.277a1.456,1.456,0,0,0,1.448,1.451h5.261a1.455,1.455,0,0,0,1.446-1.451v-5.277a1.455,1.455,0,0,0-1.446-1.451Z" transform="translate(-258.503 -257.861)" fill="#141414" fill-rule="evenodd"/>
  </g>
</svg>